REM DIRINDEX 1\6,1\2\7,1\2\8,1\2\9,1\3\10,1\3\11,1\4\12,1\4\13,1\4\14,1\5\15,1\5\16,1\5\17
REM DIRNAME folder01,folder02,folder03,folder04,folder05,folder06,folder07,folder08,folder09,folder10,folder11,folder12,folder13,folder14,folder15,folder16,folder17
TITLE ""
FILE "P2Q_t_0374-0390.mp3" MP3
  TRACK 01 AUDIO
    TITLE "6:cjc040_2398"
    INDEX 01 00:00:00
  TRACK 02 AUDIO
    TITLE "0:"
    INDEX 01 00:05:57
  TRACK 03 AUDIO
    TITLE "10:cjc040_2399"
    INDEX 01 00:06:73
  TRACK 04 AUDIO
    TITLE "0:"
    INDEX 01 00:08:07
  TRACK 05 AUDIO
    TITLE "11:cjc040_2400"
    INDEX 01 00:08:66
  TRACK 06 AUDIO
    TITLE "0:"
    INDEX 01 00:11:52
  TRACK 07 AUDIO
    TITLE "10:cjc040_2401"
    INDEX 01 00:12:26
  TRACK 08 AUDIO
    TITLE "0:"
    INDEX 01 00:13:28
  TRACK 09 AUDIO
    TITLE "11:cjc040_2402"
    INDEX 01 00:14:09
  TRACK 10 AUDIO
    TITLE "0:"
    INDEX 01 00:16:20
  TRACK 11 AUDIO
    TITLE "10:cjc040_2403"
    INDEX 01 00:16:73
  TRACK 12 AUDIO
    TITLE "0:"
    INDEX 01 00:18:05
  TRACK 13 AUDIO
    TITLE "11:cjc040_2404"
    INDEX 01 00:18:60
  TRACK 14 AUDIO
    TITLE "0:"
    INDEX 01 00:20:08
  TRACK 15 AUDIO
    TITLE "10:cjc040_2405"
    INDEX 01 00:20:63
  TRACK 16 AUDIO
    TITLE "0:"
    INDEX 01 00:22:13
  TRACK 17 AUDIO
    TITLE "11:cjc040_2406"
    INDEX 01 00:22:64
  TRACK 18 AUDIO
    TITLE "0:"
    INDEX 01 00:27:16
  TRACK 19 AUDIO
    TITLE "10:cjc040_2407"
    INDEX 01 00:27:65
  TRACK 20 AUDIO
    TITLE "0:"
    INDEX 01 00:29:05
  TRACK 21 AUDIO
    TITLE "11:cjc040_2408"
    INDEX 01 00:29:54
  TRACK 22 AUDIO
    TITLE "0:"
    INDEX 01 00:31:16
  TRACK 23 AUDIO
    TITLE "10:cjc040_2409"
    INDEX 01 00:31:71
  TRACK 24 AUDIO
    TITLE "0:"
    INDEX 01 00:33:05
  TRACK 25 AUDIO
    TITLE "11:cjc040_2410"
    INDEX 01 00:33:58
  TRACK 26 AUDIO
    TITLE "0:"
    INDEX 01 00:36:70
  TRACK 27 AUDIO
    TITLE "10:cjc040_2411"
    INDEX 01 00:37:48
  TRACK 28 AUDIO
    TITLE "0:"
    INDEX 01 00:39:05
  TRACK 29 AUDIO
    TITLE "11:cjc040_2412"
    INDEX 01 00:39:54
  TRACK 30 AUDIO
    TITLE "0:"
    INDEX 01 00:42:66
  TRACK 31 AUDIO
    TITLE "10:cjc040_2413"
    INDEX 01 00:43:46
  TRACK 32 AUDIO
    TITLE "0:"
    INDEX 01 00:45:02
  TRACK 33 AUDIO
    TITLE "11:cjc040_2414"
    INDEX 01 00:45:59
  TRACK 34 AUDIO
    TITLE "0:"
    INDEX 01 00:50:01
  TRACK 35 AUDIO
    TITLE "10:cjc040_2415"
    INDEX 01 00:50:54
  TRACK 36 AUDIO
    TITLE "0:"
    INDEX 01 00:51:71
  TRACK 37 AUDIO
    TITLE "11:cjc040_2416"
    INDEX 01 00:52:53
  TRACK 38 AUDIO
    TITLE "0:"
    INDEX 01 00:53:68
  TRACK 39 AUDIO
    TITLE "10:cjc040_2417"
    INDEX 01 00:54:48
  TRACK 40 AUDIO
    TITLE "0:"
    INDEX 01 00:55:73
  TRACK 41 AUDIO
    TITLE "11:cjc040_2418"
    INDEX 01 00:56:57
  TRACK 42 AUDIO
    TITLE "0:"
    INDEX 01 00:58:22
  TRACK 43 AUDIO
    TITLE "10:cjc040_2419"
    INDEX 01 00:59:06
  TRACK 44 AUDIO
    TITLE "0:"
    INDEX 01 01:00:08
  TRACK 45 AUDIO
    TITLE "11:cjc040_2420"
    INDEX 01 01:00:68
  TRACK 46 AUDIO
    TITLE "0:"
    INDEX 01 01:02:05
  TRACK 47 AUDIO
    TITLE "10:cjc040_2421"
    INDEX 01 01:02:61
  TRACK 48 AUDIO
    TITLE "0:"
    INDEX 01 01:04:00
  TRACK 49 AUDIO
    TITLE "11:cjc040_2422"
    INDEX 01 01:04:54
  TRACK 50 AUDIO
    TITLE "0:"
    INDEX 01 01:08:01
  TRACK 51 AUDIO
    TITLE "10:cjc040_2423"
    INDEX 01 01:08:54
  TRACK 52 AUDIO
    TITLE "0:"
    INDEX 01 01:09:67
  TRACK 53 AUDIO
    TITLE "11:cjc040_2424"
    INDEX 01 01:10:49
  TRACK 54 AUDIO
    TITLE "0:"
    INDEX 01 01:13:10
  TRACK 55 AUDIO
    TITLE "10:cjc040_2425"
    INDEX 01 01:13:65
  TRACK 56 AUDIO
    TITLE "0:"
    INDEX 01 01:14:74
  TRACK 57 AUDIO
    TITLE "11:cjc040_2426"
    INDEX 01 01:15:52
  TRACK 58 AUDIO
    TITLE "0:"
    INDEX 01 01:18:19
  TRACK 59 AUDIO
    TITLE "10:cjc040_2427"
    INDEX 01 01:19:03
  TRACK 60 AUDIO
    TITLE "0:"
    INDEX 01 01:20:04
  TRACK 61 AUDIO
    TITLE "11:cjc040_2428"
    INDEX 01 01:20:67
  TRACK 62 AUDIO
    TITLE "0:"
    INDEX 01 01:23:26
  TRACK 63 AUDIO
    TITLE "10:cjc040_2429"
    INDEX 01 01:24:12
  TRACK 64 AUDIO
    TITLE "0:"
    INDEX 01 01:25:08
  TRACK 65 AUDIO
    TITLE "11:cjc040_2430"
    INDEX 01 01:25:62
  TRACK 66 AUDIO
    TITLE "0:"
    INDEX 01 01:28:20
  TRACK 67 AUDIO
    TITLE "10:cjc040_2431"
    INDEX 01 01:28:72
  TRACK 68 AUDIO
    TITLE "0:"
    INDEX 01 01:30:13
  TRACK 69 AUDIO
    TITLE "11:cjc040_2432"
    INDEX 01 01:30:73
  TRACK 70 AUDIO
    TITLE "0:"
    INDEX 01 01:32:41
